<svg xmlns="http://www.w3.org/2000/svg" viewBox="0 0 260 160" role="img" aria-label="Sucos naturais">
  <defs>
    <linearGradient id="bg" x1="0" y1="0" x2="0" y2="1">
      <stop offset="0" stop-color="#171d18"/>
      <stop offset="1" stop-color="#202b22"/>
    </linearGradient>
    <linearGradient id="juice" x1="0" y1="0" x2="0" y2="1">
      <stop offset="0" stop-color="#ffb44c"/>
      <stop offset="1" stop-color="#e07f2a"/>
    </linearGradient>
  </defs>
  <rect width="260" height="160" rx="18" fill="url(#bg)"/>
  <path d="M88 26h84l-10 104a10 10 0 0 1-10 9h-44a10 10 0 0 1-10-9z" fill="#322b27"/>
  <path d="M96 34h68l-8 84a8 8 0 0 1-8 7h-36a8 8 0 0 1-8-7z" fill="url(#juice)"/>
  <rect x="126" y="20" width="10" height="20" rx="3" fill="#d8dde3"/>
  <circle cx="185" cy="112" r="20" fill="#f39a33"/>
  <path d="M185 92c8 8 9 18 0 26-9-8-9-18 0-26z" fill="#f7bf63"/>
  <path d="M190 90c10-7 18-5 24 4-11 4-18 4-24-4z" fill="#5f9a3a"/>
</svg>
